M48
; DRILL file {KiCad 9.0.5} date 2025-11-18T22:54:16+0300
; FORMAT={-:-/ absolute / metric / decimal}
; #@! TF.CreationDate,2025-11-18T22:54:16+03:00
; #@! TF.GenerationSoftware,Kicad,Pcbnew,9.0.5
; #@! TF.FileFunction,Plated,1,2,PTH
FMAT,2
METRIC
; #@! TA.AperFunction,Plated,PTH,ViaDrill
T1C0.300
; #@! TA.AperFunction,Plated,PTH,ComponentDrill
T2C1.000
; #@! TA.AperFunction,Plated,PTH,ComponentDrill
T3C1.020
%
G90
G05
T1
X144.351Y-74.851
X146.5Y-108.1
X147.75Y-99.08
X147.96Y-108.14
X148.74Y-98.09
X150.63Y-74.44
X150.71Y-107.52
X153.42Y-95.34
X153.51Y-76.0
X156.07Y-104.1
X156.13Y-105.04
T2
X140.92Y-68.74
X140.92Y-71.28
X140.92Y-73.82
X140.92Y-76.36
X140.92Y-78.9
X140.92Y-81.44
X140.92Y-83.98
X140.92Y-86.52
X140.92Y-89.06
X140.92Y-91.6
X140.92Y-94.14
X140.92Y-96.68
X140.92Y-99.22
X140.92Y-101.76
X140.92Y-104.3
X140.92Y-106.84
X140.92Y-109.38
X140.92Y-111.92
X140.92Y-114.46
X140.92Y-117.0
X158.7Y-68.74
X158.7Y-71.28
X158.7Y-73.82
X158.7Y-76.36
X158.7Y-78.9
X158.7Y-81.44
X158.7Y-83.98
X158.7Y-86.52
X158.7Y-89.06
X158.7Y-91.6
X158.7Y-94.14
X158.7Y-96.68
X158.7Y-99.22
X158.7Y-101.76
X158.7Y-104.3
X158.7Y-106.84
X158.7Y-109.38
X158.7Y-111.92
X158.7Y-114.46
X158.7Y-117.0
T3
X147.04Y-123.165
X149.58Y-123.165
X152.12Y-123.165
M30
