%TF.GenerationSoftware,KiCad,Pcbnew,9.0.5*%
%TF.CreationDate,2025-11-18T22:54:05+03:00*%
%TF.ProjectId,MPU6050,4d505536-3035-4302-9e6b-696361645f70,rev?*%
%TF.SameCoordinates,Original*%
%TF.FileFunction,Soldermask,Top*%
%TF.FilePolarity,Negative*%
%FSLAX46Y46*%
G04 Gerber Fmt 4.6, Leading zero omitted, Abs format (unit mm)*
G04 Created by KiCad (PCBNEW 9.0.5) date 2025-11-18 22:54:05*
%MOMM*%
%LPD*%
G01*
G04 APERTURE LIST*
G04 Aperture macros list*
%AMRoundRect*
0 Rectangle with rounded corners*
0 $1 Rounding radius*
0 $2 $3 $4 $5 $6 $7 $8 $9 X,Y pos of 4 corners*
0 Add a 4 corners polygon primitive as box body*
4,1,4,$2,$3,$4,$5,$6,$7,$8,$9,$2,$3,0*
0 Add four circle primitives for the rounded corners*
1,1,$1+$1,$2,$3*
1,1,$1+$1,$4,$5*
1,1,$1+$1,$6,$7*
1,1,$1+$1,$8,$9*
0 Add four rect primitives between the rounded corners*
20,1,$1+$1,$2,$3,$4,$5,0*
20,1,$1+$1,$4,$5,$6,$7,0*
20,1,$1+$1,$6,$7,$8,$9,0*
20,1,$1+$1,$8,$9,$2,$3,0*%
%AMFreePoly0*
4,1,37,0.800000,0.796148,0.878414,0.796148,1.032228,0.765552,1.177117,0.705537,1.307515,0.618408,1.418408,0.507515,1.505537,0.377117,1.565552,0.232228,1.596148,0.078414,1.596148,-0.078414,1.565552,-0.232228,1.505537,-0.377117,1.418408,-0.507515,1.307515,-0.618408,1.177117,-0.705537,1.032228,-0.765552,0.878414,-0.796148,0.800000,-0.796148,0.800000,-0.800000,-1.400000,-0.800000,
-1.403843,-0.796157,-1.439018,-0.796157,-1.511114,-0.766294,-1.566294,-0.711114,-1.596157,-0.639018,-1.596157,-0.603843,-1.600000,-0.600000,-1.600000,0.600000,-1.596157,0.603843,-1.596157,0.639018,-1.566294,0.711114,-1.511114,0.766294,-1.439018,0.796157,-1.403843,0.796157,-1.400000,0.800000,0.800000,0.800000,0.800000,0.796148,0.800000,0.796148,$1*%
%AMFreePoly1*
4,1,37,1.403843,0.796157,1.439018,0.796157,1.511114,0.766294,1.566294,0.711114,1.596157,0.639018,1.596157,0.603843,1.600000,0.600000,1.600000,-0.600000,1.596157,-0.603843,1.596157,-0.639018,1.566294,-0.711114,1.511114,-0.766294,1.439018,-0.796157,1.403843,-0.796157,1.400000,-0.800000,-0.800000,-0.800000,-0.800000,-0.796148,-0.878414,-0.796148,-1.032228,-0.765552,-1.177117,-0.705537,
-1.307515,-0.618408,-1.418408,-0.507515,-1.505537,-0.377117,-1.565552,-0.232228,-1.596148,-0.078414,-1.596148,0.078414,-1.565552,0.232228,-1.505537,0.377117,-1.418408,0.507515,-1.307515,0.618408,-1.177117,0.705537,-1.032228,0.765552,-0.878414,0.796148,-0.800000,0.796148,-0.800000,0.800000,1.400000,0.800000,1.403843,0.796157,1.403843,0.796157,$1*%
%AMFreePoly2*
4,1,37,0.603843,0.796157,0.639018,0.796157,0.711114,0.766294,0.766294,0.711114,0.796157,0.639018,0.796157,0.603843,0.800000,0.600000,0.800000,-0.600000,0.796157,-0.603843,0.796157,-0.639018,0.766294,-0.711114,0.711114,-0.766294,0.639018,-0.796157,0.603843,-0.796157,0.600000,-0.800000,0.000000,-0.800000,0.000000,-0.796148,-0.078414,-0.796148,-0.232228,-0.765552,-0.377117,-0.705537,
-0.507515,-0.618408,-0.618408,-0.507515,-0.705537,-0.377117,-0.765552,-0.232228,-0.796148,-0.078414,-0.796148,0.078414,-0.765552,0.232228,-0.705537,0.377117,-0.618408,0.507515,-0.507515,0.618408,-0.377117,0.705537,-0.232228,0.765552,-0.078414,0.796148,0.000000,0.796148,0.000000,0.800000,0.600000,0.800000,0.603843,0.796157,0.603843,0.796157,$1*%
%AMFreePoly3*
4,1,37,0.000000,0.796148,0.078414,0.796148,0.232228,0.765552,0.377117,0.705537,0.507515,0.618408,0.618408,0.507515,0.705537,0.377117,0.765552,0.232228,0.796148,0.078414,0.796148,-0.078414,0.765552,-0.232228,0.705537,-0.377117,0.618408,-0.507515,0.507515,-0.618408,0.377117,-0.705537,0.232228,-0.765552,0.078414,-0.796148,0.000000,-0.796148,0.000000,-0.800000,-0.600000,-0.800000,
-0.603843,-0.796157,-0.639018,-0.796157,-0.711114,-0.766294,-0.766294,-0.711114,-0.796157,-0.639018,-0.796157,-0.603843,-0.800000,-0.600000,-0.800000,0.600000,-0.796157,0.603843,-0.796157,0.639018,-0.766294,0.711114,-0.711114,0.766294,-0.639018,0.796157,-0.603843,0.796157,-0.600000,0.800000,0.000000,0.800000,0.000000,0.796148,0.000000,0.796148,$1*%
G04 Aperture macros list end*
%ADD10C,2.200000*%
%ADD11C,1.850000*%
%ADD12FreePoly0,0.000000*%
%ADD13RoundRect,0.200000X-0.600000X-0.600000X0.600000X-0.600000X0.600000X0.600000X-0.600000X0.600000X0*%
%ADD14RoundRect,0.800000X-0.800000X-0.000010X0.800000X-0.000010X0.800000X0.000010X-0.800000X0.000010X0*%
%ADD15C,1.600000*%
%ADD16FreePoly1,0.000000*%
%ADD17FreePoly2,0.000000*%
%ADD18FreePoly3,0.000000*%
%ADD19R,1.730000X2.030000*%
%ADD20O,1.730000X2.030000*%
G04 APERTURE END LIST*
D10*
%TO.C,A1*%
X147085000Y-68870000D03*
D11*
X147385000Y-71900000D03*
X152235000Y-71900000D03*
D10*
X152535000Y-68870000D03*
D12*
X140120000Y-68740000D03*
D13*
X140920000Y-68740000D03*
D14*
X140120000Y-71280000D03*
D15*
X140920000Y-71280000D03*
D16*
X140120000Y-73820000D03*
D17*
X140920000Y-73820000D03*
D14*
X140120000Y-76360000D03*
D15*
X140920000Y-76360000D03*
D14*
X140120000Y-78900000D03*
D15*
X140920000Y-78900000D03*
D14*
X140120000Y-81440000D03*
D15*
X140920000Y-81440000D03*
D14*
X140120000Y-83980000D03*
D15*
X140920000Y-83980000D03*
D16*
X140120000Y-86520000D03*
D17*
X140920000Y-86520000D03*
D14*
X140120000Y-89060000D03*
D15*
X140920000Y-89060000D03*
D14*
X140120000Y-91600000D03*
D15*
X140920000Y-91600000D03*
D14*
X140120000Y-94140000D03*
D15*
X140920000Y-94140000D03*
D14*
X140120000Y-96680000D03*
D15*
X140920000Y-96680000D03*
D16*
X140120000Y-99220000D03*
D17*
X140920000Y-99220000D03*
D14*
X140120000Y-101760000D03*
D15*
X140920000Y-101760000D03*
D14*
X140120000Y-104300000D03*
D15*
X140920000Y-104300000D03*
D14*
X140120000Y-106840000D03*
D15*
X140920000Y-106840000D03*
D14*
X140120000Y-109380000D03*
D15*
X140920000Y-109380000D03*
D16*
X140120000Y-111920000D03*
D17*
X140920000Y-111920000D03*
D14*
X140120000Y-114460000D03*
D15*
X140920000Y-114460000D03*
D14*
X140120000Y-117000000D03*
D15*
X140920000Y-117000000D03*
X158700000Y-117000000D03*
D14*
X159500000Y-117000000D03*
D15*
X158700000Y-114460000D03*
D14*
X159500000Y-114460000D03*
D18*
X158700000Y-111920000D03*
D12*
X159500000Y-111920000D03*
D15*
X158700000Y-109380000D03*
D14*
X159500000Y-109380000D03*
D15*
X158700000Y-106840000D03*
D14*
X159500000Y-106840000D03*
D15*
X158700000Y-104300000D03*
D14*
X159500000Y-104300000D03*
D15*
X158700000Y-101760000D03*
D14*
X159500000Y-101760000D03*
D18*
X158700000Y-99220000D03*
D12*
X159500000Y-99220000D03*
D15*
X158700000Y-96680000D03*
D14*
X159500000Y-96680000D03*
D15*
X158700000Y-94140000D03*
D14*
X159500000Y-94140000D03*
D15*
X158700000Y-91600000D03*
D14*
X159500000Y-91600000D03*
D15*
X158700000Y-89060000D03*
D14*
X159500000Y-89060000D03*
D18*
X158700000Y-86520000D03*
D12*
X159500000Y-86520000D03*
D15*
X158700000Y-83980000D03*
D14*
X159500000Y-83980000D03*
D15*
X158700000Y-81440000D03*
D14*
X159500000Y-81440000D03*
D15*
X158700000Y-78900000D03*
D14*
X159500000Y-78900000D03*
D15*
X158700000Y-76360000D03*
D14*
X159500000Y-76360000D03*
D18*
X158700000Y-73820000D03*
D12*
X159500000Y-73820000D03*
D15*
X158700000Y-71280000D03*
D14*
X159500000Y-71280000D03*
D15*
X158700000Y-68740000D03*
D14*
X159500000Y-68740000D03*
%TD*%
D19*
%TO.C,J2*%
X147040000Y-123165000D03*
D20*
X149580000Y-123165000D03*
X152120000Y-123165000D03*
%TD*%
M02*
